<svg width="27" height="27" viewBox="0 0 27 27" fill="none" xmlns="http://www.w3.org/2000/svg">
<path d="M0 2.95647V12.1838C0 13.2331 0.413533 14.2391 1.15419 14.9798L12.0171 25.8427C13.5602 27.3858 16.0599 27.3858 17.6029 25.8427L25.8427 17.6029C27.3858 16.0599 27.3858 13.5602 25.8427 12.0172L14.9798 1.15421C14.2391 0.413554 13.2331 2.14437e-05 12.1838 2.14437e-05H2.96262C1.32701 -0.00615069 0 1.32086 0 2.95647ZM6.91279 4.93155C7.43661 4.93155 7.93898 5.13964 8.30938 5.51004C8.67978 5.88044 8.88787 6.38281 8.88787 6.90663C8.88787 7.43046 8.67978 7.93283 8.30938 8.30323C7.93898 8.67363 7.43661 8.88171 6.91279 8.88171C6.38897 8.88171 5.8866 8.67363 5.5162 8.30323C5.1458 7.93283 4.93771 7.43046 4.93771 6.90663C4.93771 6.38281 5.1458 5.88044 5.5162 5.51004C5.8866 5.13964 6.38897 4.93155 6.91279 4.93155Z" fill="#BB908D"/>
</svg>
