<svg width="23" height="19" viewBox="0 0 23 19" fill="none" xmlns="http://www.w3.org/2000/svg">
<path d="M11.5052 4C14.392 4 16.7349 6.24 16.7349 9C16.7349 9.65 16.5989 10.26 16.3583 10.83L19.4125 13.75C20.9918 12.49 22.2365 10.86 23 9C21.1905 4.61 16.7244 1.5 11.4948 1.5C10.0305 1.5 8.62892 1.75 7.33197 2.2L9.59118 4.36C10.1874 4.13 10.8254 4 11.5052 4ZM1.04593 1.27L3.43065 3.55L3.91178 4.01C2.17553 5.3 0.815825 7.02 0 9C1.80946 13.39 6.27558 16.5 11.5052 16.5C13.1264 16.5 14.6744 16.2 16.0864 15.66L16.5257 16.08L19.5903 19L20.9186 17.73L2.37426 0L1.04593 1.27ZM6.82992 6.8L8.45111 8.35C8.39882 8.56 8.36744 8.78 8.36744 9C8.36744 10.66 9.76899 12 11.5052 12C11.7353 12 11.9654 11.97 12.1851 11.92L13.8063 13.47C13.1055 13.8 12.3315 14 11.5052 14C8.61846 14 6.27558 11.76 6.27558 9C6.27558 8.21 6.48477 7.47 6.82992 6.8ZM11.3379 6.02L14.6326 9.17L14.6535 9.01C14.6535 7.35 13.2519 6.01 11.5157 6.01L11.3379 6.02Z" fill="#333333"/>
</svg>
